<svg width="60" height="60" viewBox="0 0 60 60" fill="none" xmlns="http://www.w3.org/2000/svg">
<g clip-path="url(#clip0_1685_6)">
<mask id="mask0_1685_6" style="mask-type:alpha" maskUnits="userSpaceOnUse" x="-1" y="0" width="61" height="60">
<path fill-rule="evenodd" clip-rule="evenodd" d="M42.547 59.5905C43.0245 59.7766 43.5351 59.8625 44.0472 59.8428C44.5593 59.8231 45.0618 59.6983 45.5236 59.4761L57.8766 53.5319C58.5127 53.2257 59.0495 52.7461 59.4251 52.1482C59.8008 51.5504 60 50.8587 60 50.1527V9.84816C60.0001 9.14204 59.8009 8.45023 59.4253 7.85233C59.0496 7.25444 58.5128 6.77475 57.8766 6.46847L45.5236 0.525189C44.8256 0.189332 44.0404 0.0787523 43.2768 0.208753C42.5131 0.338754 41.8088 0.702907 41.2612 1.25081L17.6128 22.8255L7.31249 15.0063C6.84777 14.6537 6.27431 14.4748 5.69152 14.5006C5.10874 14.5265 4.55337 14.7555 4.1217 15.1478L0.817954 18.153C0.560492 18.3872 0.354741 18.6725 0.213863 18.9907C0.0729855 19.309 8.23422e-05 19.6531 -0.000182382 20.0011C-0.000447106 20.3492 0.0719324 20.6934 0.212326 21.0119C0.35272 21.3303 0.558036 21.6159 0.815141 21.8505L9.74811 30.0002L0.81561 38.1503C0.558645 38.3849 0.353451 38.6706 0.213145 38.989C0.0728386 39.3074 0.000506081 39.6515 0.000770778 39.9995C0.00103547 40.3474 0.0738916 40.6915 0.214682 41.0097C0.355473 41.3279 0.561101 41.6132 0.818423 41.8474L4.12217 44.8525C4.55378 45.245 5.10912 45.474 5.6919 45.5C6.27469 45.5259 6.84818 45.3471 7.31295 44.9946L17.6133 37.1758L41.2617 58.75C41.6277 59.1159 42.065 59.4021 42.547 59.5905ZM45.0089 16.3797L27.0656 30.0002L45.0094 43.6211L45.0089 16.3797Z" fill="white"/>
</mask>
<g mask="url(#mask0_1685_6)">
<path d="M57.877 6.47844L45.5141 0.52531C44.8159 0.189023 44.0304 0.0782091 43.2663 0.208219C42.5023 0.33823 41.7976 0.702629 41.2499 1.25093L0.778992 38.1505C0.521835 38.3849 0.316468 38.6705 0.176037 38.989C0.0356066 39.3074 -0.0367936 39.6516 -0.0365288 39.9996C-0.0362641 40.3476 0.0366598 40.6917 0.177575 41.0099C0.31849 41.3281 0.524291 41.6134 0.781805 41.8475L4.08743 44.8527C4.51917 45.2456 5.07487 45.4749 5.65808 45.5009C6.24128 45.5268 6.81516 45.3477 7.28009 44.9947L56.0165 8.02203C57.6515 6.78172 59.9999 7.94797 59.9999 10.0002V9.85672C59.9999 9.15081 59.8007 8.45923 59.4252 7.86152C59.0496 7.26381 58.513 6.78471 57.877 6.47844Z" fill="#0065A9"/>
<g filter="url(#filter0_d_1685_6)">
<path d="M57.877 53.5225L45.5142 59.4747C44.816 59.8111 44.0305 59.922 43.2665 59.7922C42.5025 59.6623 41.7978 59.2981 41.25 58.75L0.779023 21.85C0.521865 21.6155 0.316498 21.3299 0.176068 21.0115C0.0356371 20.6931 -0.036763 20.3488 -0.0364983 20.0008C-0.0362336 19.6528 0.0366903 19.3087 0.177605 18.9905C0.31852 18.6723 0.524321 18.387 0.781835 18.1529L4.08746 15.1478C4.5192 14.7548 5.07491 14.5255 5.65811 14.4995C6.24131 14.4736 6.81519 14.6527 7.28012 15.0057L56.0165 51.9779C57.6515 53.2187 60 52.0525 60 50.0003V50.1437C60 50.8496 59.8008 51.5412 59.4252 52.1389C59.0496 52.7366 58.513 53.2162 57.877 53.5225Z" fill="#007ACC"/>
</g>
<g filter="url(#filter1_d_1685_6)">
<path d="M45.5147 59.4762C44.8162 59.8119 44.0307 59.9223 43.2667 59.7922C42.5027 59.6621 41.798 59.298 41.25 58.7501C42.6337 60.1339 45 59.1537 45 57.1967V2.80339C45 0.846363 42.6337 -0.133793 41.25 1.25043C41.798 0.702545 42.5027 0.338411 43.2667 0.208341C44.0307 0.0782718 44.8162 0.188688 45.5147 0.524332L57.8751 6.46902C58.5116 6.7751 59.0487 7.2547 59.4247 7.85261C59.8006 8.45052 60 9.14244 60 9.84871V50.1528C60 50.859 59.8006 51.551 59.4247 52.1489C59.0487 52.7468 58.5116 53.2264 57.8751 53.5325L45.5147 59.4762Z" fill="#1F9CF0"/>
</g>
<path opacity="0.25" fill-rule="evenodd" clip-rule="evenodd" d="M42.5109 59.5905C42.9883 59.7765 43.4989 59.8624 44.0108 59.8427C44.5228 59.823 45.0253 59.6982 45.487 59.4761L57.84 53.5319C58.4762 53.2256 59.013 52.7459 59.3887 52.148C59.7644 51.5501 59.9636 50.8583 59.9634 50.1522V9.84816C59.9636 9.14204 59.7644 8.45023 59.3887 7.85233C59.013 7.25444 58.4762 6.77475 57.84 6.46847L45.487 0.525189C44.789 0.189332 44.0038 0.0787523 43.2402 0.208753C42.4766 0.338754 41.7722 0.702907 41.2247 1.25081L17.5762 22.8255L7.27591 15.0068C6.81119 14.6541 6.23773 14.4752 5.65495 14.5011C5.07216 14.527 4.5168 14.7559 4.08513 15.1483L0.78138 18.1535C0.523982 18.3877 0.318289 18.673 0.177453 18.9912C0.0366164 19.3095 -0.0362641 19.6536 -0.0365288 20.0016C-0.0367935 20.3496 0.0355634 20.6938 0.175916 21.0123C0.316268 21.3307 0.521526 21.6164 0.778568 21.851L9.71154 30.0002L0.779036 38.1499C0.521931 38.3844 0.316615 38.6701 0.176221 38.9885C0.0358274 39.307 -0.036552 39.6512 -0.0362873 39.9992C-0.0360226 40.3473 0.0368805 40.6914 0.177758 41.0096C0.318636 41.3279 0.524387 41.6132 0.781849 41.8474L4.0856 44.8525C4.51721 45.245 5.07254 45.474 5.65533 45.5C6.23812 45.5259 6.81161 45.3471 7.27638 44.9946L17.5772 37.1753L41.2256 58.75C41.5915 59.1159 42.0291 59.402 42.5109 59.5905ZM44.9728 16.3793L27.029 30.0002L44.9728 43.6207V16.3793Z" fill="url(#paint0_linear_1685_6)"/>
</g>
</g>
<defs>
<filter id="filter0_d_1685_6" x="-1.07825" y="13.4553" width="62.12" height="47.4316" filterUnits="userSpaceOnUse" color-interpolation-filters="sRGB">
<feFlood flood-opacity="0" result="BackgroundImageFix"/>
<feColorMatrix in="SourceAlpha" type="matrix" values="0 0 0 0 0 0 0 0 0 0 0 0 0 0 0 0 0 0 127 0" result="hardAlpha"/>
<feOffset/>
<feGaussianBlur stdDeviation="0.520875"/>
<feColorMatrix type="matrix" values="0 0 0 0 0 0 0 0 0 0 0 0 0 0 0 0 0 0 0.25 0"/>
<feBlend mode="overlay" in2="BackgroundImageFix" result="effect1_dropShadow_1685_6"/>
<feBlend mode="normal" in="SourceGraphic" in2="effect1_dropShadow_1685_6" result="shape"/>
</filter>
<filter id="filter1_d_1685_6" x="40.2082" y="-0.886477" width="20.8335" height="61.7734" filterUnits="userSpaceOnUse" color-interpolation-filters="sRGB">
<feFlood flood-opacity="0" result="BackgroundImageFix"/>
<feColorMatrix in="SourceAlpha" type="matrix" values="0 0 0 0 0 0 0 0 0 0 0 0 0 0 0 0 0 0 127 0" result="hardAlpha"/>
<feOffset/>
<feGaussianBlur stdDeviation="0.520875"/>
<feColorMatrix type="matrix" values="0 0 0 0 0 0 0 0 0 0 0 0 0 0 0 0 0 0 0.25 0"/>
<feBlend mode="overlay" in2="BackgroundImageFix" result="effect1_dropShadow_1685_6"/>
<feBlend mode="normal" in="SourceGraphic" in2="effect1_dropShadow_1685_6" result="shape"/>
</filter>
<linearGradient id="paint0_linear_1685_6" x1="29.9634" y1="0.154876" x2="29.9634" y2="59.8455" gradientUnits="userSpaceOnUse">
<stop stop-color="white"/>
<stop offset="1" stop-color="white" stop-opacity="0"/>
</linearGradient>
<clipPath id="clip0_1685_6">
<rect width="60" height="60" fill="white"/>
</clipPath>
</defs>
</svg>
