<svg width="60" height="60" viewBox="0 0 60 60" fill="none" xmlns="http://www.w3.org/2000/svg">
<g clip-path="url(#clip0_1685_19)">
<path d="M26.4054 27.4027L9.85617 13.4496C9.18022 12.8861 8.388 12.4778 7.53579 12.2537C6.68358 12.0296 5.79229 11.9952 4.92522 12.1529C4.05815 12.3106 3.23657 12.6566 2.51885 13.1662C1.80113 13.6758 1.20487 14.3366 0.772425 15.1016C0.339979 15.8667 0.0819555 16.7172 0.0166831 17.5927C-0.0485892 18.4683 0.0804905 19.3474 0.394754 20.1677C0.709017 20.988 1.20075 21.7293 1.83504 22.3389C2.46932 22.9485 3.23058 23.4116 4.06476 23.6951H4.125L4.28109 23.743L25.1566 30.0777C25.3081 30.1324 25.4678 30.1608 25.6289 30.1616C25.9535 30.1598 26.2686 30.0528 26.5266 29.8566C26.7847 29.6605 26.9715 29.3859 27.0588 29.0745C27.1461 28.7631 27.1292 28.4319 27.0106 28.1309C26.8919 27.83 26.6781 27.5757 26.4014 27.4067L26.4054 27.4027Z" fill="url(#paint0_linear_1685_19)"/>
<path d="M29.7234 4.36744C29.7282 3.58262 29.5193 2.81119 29.119 2.13521C28.7186 1.45924 28.1418 0.903991 27.45 0.528541C26.7581 0.153091 25.9769 -0.028522 25.1897 0.00302024C24.4024 0.0345625 23.6384 0.27808 22.9791 0.707671L2.7682 12.9309C2.0809 13.377 1.49268 13.9587 1.03986 14.6401C0.587036 15.3215 0.279217 16.0881 0.135403 16.8926C-0.00841073 17.6971 0.0148319 18.5224 0.203696 19.3177C0.392561 20.1129 0.743039 20.8611 1.2335 21.5161C1.72396 22.1711 2.34399 22.7191 3.05532 23.1261C3.76665 23.5332 4.55418 23.7907 5.36931 23.8828C6.18444 23.9748 7.00987 23.8995 7.79463 23.6615C8.5794 23.4234 9.30686 23.0277 9.93211 22.4986L28.0502 7.79187L28.1944 7.67211C28.6732 7.26348 29.0577 6.7566 29.3216 6.18618C29.5855 5.61576 29.7225 4.99527 29.7232 4.3672" fill="url(#paint1_linear_1685_19)"/>
<path d="M59.1155 30.7076L28.4506 1.29035C28.0354 0.875133 27.5403 0.547769 26.9949 0.327919C26.4495 0.108068 25.8652 0.000264444 25.277 0.0109813C24.6888 0.0216981 24.1088 0.150714 23.5719 0.390283C23.0349 0.629852 22.5522 0.975031 22.1525 1.4051C21.7529 1.83516 21.4446 2.34124 21.2462 2.89295C21.0478 3.44465 20.9634 4.03061 20.998 4.61562C21.0326 5.20064 21.1856 5.77266 21.4477 6.29732C21.7098 6.82199 22.0756 7.28848 22.5232 7.6688L22.5792 7.71665L55.1573 35.057C55.5872 35.4162 56.1111 35.6456 56.6674 35.7183C57.2237 35.791 57.7892 35.7039 58.2975 35.4673C58.8058 35.2306 59.2357 34.8544 59.5366 34.3827C59.8375 33.911 59.9969 33.3635 59.996 32.8046C59.996 32.4144 59.9181 32.0281 59.7669 31.6681C59.6158 31.3081 59.3943 30.9817 59.1155 30.7076Z" fill="url(#paint2_linear_1685_19)"/>
<path d="M60 32.8167C60.0039 32.2745 59.8567 31.7419 59.5749 31.2781C59.293 30.8143 58.8874 30.4374 58.4034 30.1895C57.9193 29.9416 57.3757 29.8323 56.833 29.8738C56.2903 29.9153 55.7698 30.106 55.3294 30.4246L18.2248 48.4842C17.4846 48.8543 16.8293 49.373 16.3002 50.0076C15.771 50.6422 15.3794 51.379 15.1499 52.1717C14.9205 52.9644 14.8581 53.7958 14.9668 54.6136C15.0755 55.4314 15.353 56.218 15.7816 56.9239C16.2103 57.6297 16.7809 58.2396 17.4577 58.7152C18.1344 59.1907 18.9026 59.5217 19.714 59.6872C20.5253 59.8527 21.3623 59.8492 22.1722 59.6769C22.9821 59.5046 23.7475 59.1672 24.4202 58.686L58.7313 35.2286C59.123 34.9589 59.443 34.5985 59.664 34.1784C59.885 33.7583 60.0003 33.291 60 32.8167Z" fill="url(#paint3_linear_1685_19)"/>
<path d="M17.7764 17.9502H41.7898V41.8699H17.7764V17.9502Z" fill="black"/>
<path d="M20.3899 37.3852H29.3948V38.8801H20.3902L20.3899 37.3852ZM20.0137 24.1175L20.6822 23.4876C20.7458 23.5876 20.8322 23.6712 20.9345 23.7315C21.0367 23.7918 21.1519 23.8271 21.2705 23.8345C21.5266 23.8345 21.6947 23.6552 21.6947 23.3083V20.9482H22.7273V23.3163C22.7428 23.5069 22.7181 23.6987 22.6547 23.8793C22.5913 24.0599 22.4906 24.2253 22.3591 24.3647C22.1069 24.6105 21.7712 24.7528 21.4186 24.7635H21.3305C21.0898 24.7731 20.8503 24.7263 20.6311 24.6267C20.412 24.5272 20.2194 24.3778 20.0688 24.1906L20.0137 24.1175ZM23.1914 20.9482H26.2052V21.8214H24.2041V22.3915H26.0011V23.1888H24.2201V23.7827H26.2212V24.6598H23.1797L23.1914 20.9482ZM27.6741 21.8531H26.5533V20.9482H29.8392V21.8531H28.7147V24.6797H27.6741V21.8531ZM20.43 26.1549H22.1991C22.3827 26.14 22.5675 26.1616 22.7427 26.2184C22.9179 26.2752 23.08 26.3662 23.2195 26.486C23.2991 26.5654 23.3617 26.66 23.4037 26.7641C23.4456 26.8682 23.4661 26.9797 23.4637 27.0918C23.4669 27.2738 23.4126 27.4522 23.3084 27.6017C23.2043 27.7513 23.0556 27.8644 22.8834 27.9253C23.0963 27.9642 23.2883 28.0775 23.4248 28.2448C23.5613 28.4122 23.6333 28.6226 23.6278 28.8381C23.6278 29.5117 23.1035 29.9104 22.207 29.9104H20.43V26.1549ZM22.4311 27.3071C22.4311 27.0998 22.263 26.9882 21.9588 26.9882H21.4425V27.6419H21.9429C22.2551 27.6419 22.4391 27.5345 22.4391 27.3192L22.4311 27.3071ZM22.0709 28.3677H21.4427V29.0573H22.091C22.4112 29.0573 22.5872 28.9336 22.5872 28.7144C22.5797 28.5173 22.4466 28.3859 22.1459 28.3693L22.0709 28.3677ZM26.0972 29.9104L25.3406 28.7781H24.9926V29.9104H23.952L23.9599 26.1549H25.6209C25.8408 26.1371 26.062 26.1632 26.2716 26.2317C26.4812 26.3002 26.675 26.4096 26.8416 26.5537C27.0489 26.7651 27.168 27.0469 27.1748 27.3423L27.1737 27.4229C27.181 27.671 27.1106 27.9153 26.9722 28.1217C26.8338 28.3282 26.6343 28.4866 26.4014 28.575L27.1327 29.6644L28.6186 26.1272H29.6191L31.2199 29.8906H30.1034L29.8352 29.2168H28.3823L28.1142 29.9104H26.0972ZM29.1108 27.3549L28.6866 28.4114H29.531L29.1108 27.3549ZM25.5567 27.0521H25.0005V27.957L25.5607 27.9491C25.909 27.9491 26.1211 27.7775 26.1211 27.5025C26.1211 27.2037 25.901 27.0521 25.5567 27.0521ZM31.384 26.1428H32.4246V29.8782H31.384V26.1428ZM32.809 26.1428H33.7854L35.1342 28.1361V26.1428H36.1627V29.8782H35.2542L33.8414 27.8291V29.8782H32.8087L32.809 26.1428ZM36.3349 29.3242L36.911 28.6345C37.2486 28.9157 37.6718 29.0745 38.1117 29.0851C38.396 29.0851 38.5441 28.9852 38.5441 28.826C38.5441 28.7055 38.4787 28.6303 38.238 28.5514L38.1237 28.5171L38.058 28.4996L37.9076 28.463L37.8255 28.444L37.6657 28.4044L37.5127 28.3628C36.9143 28.1889 36.495 27.9318 36.495 27.2949C36.495 26.6013 37.0472 26.0989 37.9477 26.0989C38.5043 26.0782 39.0503 26.2548 39.4884 26.5973L38.9883 27.3071C38.6855 27.0793 38.319 26.951 37.9397 26.9401C37.6875 26.9401 37.5635 27.0398 37.5635 27.1794C37.5635 27.3057 37.6331 27.3801 37.8795 27.4567L37.9962 27.4899C38.0174 27.4955 38.0398 27.5011 38.0632 27.5067L38.2158 27.5422C39.0764 27.7294 39.6087 28.0086 39.6087 28.7062C39.6087 29.4423 39.0438 29.8728 38.1855 29.9008L38.0958 29.9022C37.4987 29.9276 36.9109 29.7493 36.4294 29.3968L36.3349 29.3242Z" fill="white"/>
</g>
<defs>
<linearGradient id="paint0_linear_1685_19" x1="682.64" y1="796.204" x2="2474.94" y2="1671.27" gradientUnits="userSpaceOnUse">
<stop offset="0.21" stop-color="#FE2857"/>
<stop offset="1" stop-color="#293896"/>
</linearGradient>
<linearGradient id="paint1_linear_1685_19" x1="67.6559" y1="1845.53" x2="2363.99" y2="135.789" gradientUnits="userSpaceOnUse">
<stop stop-color="#FE2857"/>
<stop offset="0.01" stop-color="#FE2857"/>
<stop offset="0.86" stop-color="#FF318C"/>
</linearGradient>
<linearGradient id="paint2_linear_1685_19" x1="266.687" y1="497.341" x2="3461.22" y2="3409.39" gradientUnits="userSpaceOnUse">
<stop offset="0.02" stop-color="#FF318C"/>
<stop offset="0.21" stop-color="#FE2857"/>
<stop offset="0.86" stop-color="#FDB60D"/>
</linearGradient>
<linearGradient id="paint3_linear_1685_19" x1="4121.59" y1="859.93" x2="829.356" y2="3134.92" gradientUnits="userSpaceOnUse">
<stop offset="0.01" stop-color="#FDB60D"/>
<stop offset="0.86" stop-color="#FCF84A"/>
</linearGradient>
<clipPath id="clip0_1685_19">
<rect width="60" height="60" fill="white"/>
</clipPath>
</defs>
</svg>
