<svg width="60" height="54" viewBox="0 0 60 54" fill="none" xmlns="http://www.w3.org/2000/svg">
<g clip-path="url(#clip0_1685_32)">
<path d="M1.94719 0.000160296C1.6666 -0.00345847 1.38863 0.0542343 1.13278 0.169187C0.876935 0.28414 0.649422 0.453565 0.46622 0.665563C0.283019 0.877562 0.148572 1.12699 0.0723219 1.39634C-0.00392869 1.66569 -0.020134 1.94842 0.0248441 2.22468L8.18555 51.6366C8.2872 52.2412 8.59922 52.7909 9.06681 53.1889C9.5344 53.5869 10.1276 53.8078 10.7423 53.8129H49.8923C50.3531 53.8189 50.8007 53.6595 51.1535 53.3639C51.5063 53.0682 51.7409 52.656 51.8145 52.2023L59.9754 2.23426C60.0203 1.95802 60.004 1.67532 59.9277 1.40601C59.8514 1.13671 59.7169 0.887323 59.5337 0.675375C59.3505 0.463426 59.123 0.29405 58.8672 0.17914C58.6113 0.0642294 58.3334 0.00657072 58.0528 0.0102122L1.94719 0.000160296ZM36.3103 35.7122H23.8146L20.4312 18.0815H39.3382L36.3103 35.7122Z" fill="#2684FF"/>
<path d="M57.3305 18.0566H39.3033L36.2777 35.6733H23.7921L9.04945 53.127C9.51668 53.53 10.1124 53.7541 10.7302 53.7591H49.8586C50.319 53.765 50.7662 53.6057 51.1188 53.3104C51.4714 53.015 51.7059 52.6031 51.7795 52.1498L57.3305 18.0566Z" fill="url(#paint0_linear_1685_32)"/>
</g>
<defs>
<linearGradient id="paint0_linear_1685_32" x1="5253.96" y1="511.395" x2="3178.76" y2="3465.6" gradientUnits="userSpaceOnUse">
<stop offset="0.18" stop-color="#0052CC"/>
<stop offset="1" stop-color="#2684FF"/>
</linearGradient>
<clipPath id="clip0_1685_32">
<rect width="60" height="54" fill="white"/>
</clipPath>
</defs>
</svg>
