<svg width="60" height="60" viewBox="0 0 60 60" fill="none" xmlns="http://www.w3.org/2000/svg">
<path d="M55.3725 24.5308L55.3031 24.334L48.1575 4.98022C48.0174 4.60305 47.7597 4.28093 47.4225 4.06147C47.2143 3.9234 46.9801 3.82903 46.7344 3.78406C46.4886 3.73909 46.2362 3.74447 45.9926 3.79986C45.7489 3.85525 45.519 3.95951 45.3168 4.10632C45.1147 4.25313 44.9444 4.43944 44.8163 4.65398C44.7136 4.81623 44.6364 4.99329 44.5875 5.17898L39.765 18.7502H20.235L15.4125 5.17898C15.351 4.93496 15.2412 4.70576 15.0896 4.5049C14.938 4.30405 14.7477 4.13563 14.5299 4.0096C14.3121 3.88356 14.0713 3.80248 13.8216 3.77113C13.5719 3.73979 13.3185 3.75882 13.0763 3.8271C12.8995 3.87965 12.7314 3.95799 12.5775 4.0596C12.24 4.27954 11.9822 4.60236 11.8425 4.98022L4.70064 24.3377L4.62564 24.5308C3.59202 27.3104 3.4611 30.3451 4.25148 33.2033C5.04187 36.0616 6.71332 38.5979 9.02814 40.4515L9.05626 40.474L9.11626 40.5227L19.9856 48.9808L25.3781 53.2127L28.6538 55.7852C29.0336 56.0864 29.504 56.2503 29.9888 56.2503C30.4735 56.2503 30.9439 56.0864 31.3238 55.7852L34.5994 53.2127L39.9919 48.9808L50.9381 40.474L50.9681 40.4496C53.2832 38.5966 54.9551 36.0608 55.7462 33.203C56.5373 30.3451 56.4071 27.3105 55.3744 24.5308H55.3725Z" fill="#E53935"/>
<path d="M55.3725 24.5309L55.3031 24.334C51.8025 25.0831 48.5179 26.618 45.6975 28.8227L30.0094 41.1415L39.9975 48.9809L50.9456 40.474L50.9756 40.4496C53.2891 38.5954 54.9592 36.0591 55.7485 33.2013C56.5379 30.3435 56.4063 27.3096 55.3725 24.5309Z" fill="#EF6C00"/>
<path d="M19.9856 48.9806L25.3781 53.2124L28.6537 55.7849C29.0336 56.0861 29.504 56.25 29.9888 56.25C30.4735 56.25 30.9439 56.0861 31.3237 55.7849L34.5994 53.2124L39.9919 48.9806L30 41.1431L19.9856 48.9806Z" fill="#F9A825"/>
<path d="M14.3025 28.8206C11.483 26.6194 8.20051 25.0871 4.70253 24.3394L4.62753 24.5306C3.59371 27.31 3.46249 30.3445 4.25254 33.2028C5.04258 36.061 6.71367 38.5974 9.02816 40.4512L9.05628 40.4737L9.11628 40.5225L19.9857 48.9806L29.9813 41.1431L14.3025 28.8206Z" fill="#EF6C00"/>
</svg>
